PathFileType	4	(X/Y/Z)	OpenSim_Sub07_EMGStiffKnee_Accel.trc
DataRate	CameraRate	NumFrames	NumMarkers	Units	OrigDataRate	OrigDataStartFrame	OrigNumFrames
100	100	13	8	m	100	6465	7388
Frame#	Time	torso_imu_offset_imu	pelvis_imu_offset_imu	tibia_r_imu_offset_imu	femur_r_imu_offset_imu	tibia_l_imu_offset_imu	femur_l_imu_offset_imu	toes_r_imu_offset_imu	toes_l_imu_offset_imu
				X1	Y1	Z1	X2	Y2	Z2	X3	Y3	Z3	X4	Y4	Z4	X5	Y5	Z5	X6	Y6	Z6	X7	Y7	Z7	X8		Y8	Z8	

6465	64.64000000	-10.05052317	0.18916775	6.47951073	9.54548954	-0.35545978	1.19098736	6.65995068	2.18252476	-0.88965513	8.75725436	-8.07569954	-3.87693319	10.67325784	0.15575535	-0.14968628	9.36686872	3.10619108	-1.60282541	14.63460573	-9.49830246	-9.61985012	5.20239483	1.22946431	11.21716508
6466	64.65000000	-10.40108295	0.33632149	6.51465159	9.94489006	-0.41646259	2.01117754	7.84302328	1.37408052	-2.01000883	7.79976119	-5.54617077	-2.04095871	11.04283364	-0.00034651	-0.08733413	9.67716335	3.42478682	-1.78892932	12.00876503	-9.07249520	-24.24464952	4.61124831	1.23356335	11.71426403
6467	64.66000000	-10.53118552	0.37552846	6.92451123	10.25008862	-0.31673434	1.95579447	9.39681345	-1.65301824	-2.38440706	6.39843964	-4.17471666	-1.40973636	11.50274421	0.10058768	-0.13316824	10.02309857	3.33602742	-1.98016928	10.91167790	6.14434870	-18.96055272	4.54431005	1.06982421	11.86769129
6468	64.67000000	-11.40875476	0.50005300	7.41353664	10.36295604	-0.04444515	2.29561829	9.66019448	-1.27876934	-3.99803807	5.26138133	-3.94009569	-1.69442460	11.78649373	0.38484026	0.24433585	10.31793327	3.20623278	-2.39826792	13.57072230	9.03343071	9.09470272	5.13280612	0.96857445	11.59121600
6469	64.68000000	-12.49097267	0.68212734	7.20146209	10.98518583	0.49080586	3.89129607	11.23597566	1.29230097	0.65411609	8.30119202	-3.32320832	-0.88432247	11.96208395	0.71876726	0.36966729	10.40658860	2.93473162	-2.68324267	13.41226223	11.72696794	22.78015069	4.98039375	1.01593700	11.93760523
6470	64.69000000	-12.15961420	0.82722762	6.70018199	11.70080936	1.35134565	4.80350580	14.82958067	-2.67151881	10.54504335	13.20004796	-2.08596381	0.13278137	12.46479250	1.55560367	-0.36430277	10.37453341	2.28416876	-2.69709486	0.75771736	8.86570067	10.22577685	4.29556259	1.42031643	12.69342018
6471	64.70000000	-11.40487759	0.98131845	6.61060622	11.62375539	2.09083124	4.61062022	18.32293658	-5.09778844	7.51457736	14.13795827	-1.23676130	1.66796708	13.01740030	2.95118274	-0.27677160	10.76159626	1.68713063	-2.42605926	10.07952355	5.35026012	10.01216021	4.60504171	2.13206562	12.66872113
6472	64.71000000	-11.50469187	1.29775622	6.55914347	11.61719630	2.21524134	4.67669679	16.16359541	0.40016740	1.59631663	12.81648598	-1.43766540	3.80628843	13.03740568	3.68784118	0.62617582	11.16990433	1.22791010	-2.09635309	27.21295257	-4.73300392	19.96518898	5.22140772	2.66204304	12.84603308
6473	64.72000000	-11.53402315	1.71126996	6.12096935	12.02152995	1.57235143	5.62152505	12.61409390	5.11068543	-0.76072287	12.24321888	-3.02086760	2.22678357	13.06487659	3.32530133	0.66722273	11.02816600	1.31120722	-1.79734624	22.34759768	-1.16972982	13.98518862	4.77969490	2.73006907	13.40862138
6474	64.73000000	-11.18874530	1.90230113	5.63640892	11.87228782	0.99635014	5.86441592	11.89122463	7.79481995	-1.34394819	11.95400879	-5.04389297	-2.27525901	13.80332277	2.05174242	0.82492500	10.95291343	1.92489831	-1.71470369	6.49107223	7.17676938	8.48820877	3.94655283	2.50973604	13.58531857
6475	64.74000000	-10.81257839	2.05597950	5.37234117	11.45247162	0.61289393	5.17534507	9.82931300	9.76314686	1.24131420	12.40703898	-5.53094469	-2.64838314	14.22641735	0.38522814	1.73826993	11.19864893	2.35421454	-1.83854352	9.66263391	6.61609022	11.45208036	5.04574116	2.64268340	13.38855549
6476	64.75000000	-10.55586237	2.23997484	5.18830334	11.11710542	0.00022862	4.79564148	8.74199500	9.46642559	0.38285917	12.29287213	-2.97870489	1.50373343	13.47440750	-1.20550098	2.13203370	11.11059196	1.67919635	-1.42282522	7.56066811	3.93643788	8.87948599	7.65471122	3.25163853	13.58035829
6477	64.76000000	-10.47346480	2.42669136	5.20047773	10.81691029	-0.39160406	4.54226021	8.28699009	9.85761267	-2.36265536	10.78434003	0.22038356	2.08627339	12.83825106	-2.75097180	1.25333242	11.08011748	0.15612556	-0.50342935	5.63408916	1.17534561	9.28693277	8.14549042	3.26637437	13.82826569
